<?xml version="1.0" standalone="no"?>
<!DOCTYPE svg PUBLIC "-//W3C//DTD SVG 20010904//EN"
 "http://www.w3.org/TR/2001/REC-SVG-20010904/DTD/svg10.dtd">
<svg version="1.0" xmlns="http://www.w3.org/2000/svg"
 width="519.000000pt" height="519.000000pt" viewBox="0 0 519.000000 519.000000"
 preserveAspectRatio="xMidYMid meet">
<metadata>
Created by potrace 1.14, written by Peter Selinger 2001-2017
</metadata>
<g transform="translate(0.000000,519.000000) scale(0.100000,-0.100000)"
fill="#000000" stroke="none">
<path d="M2497 4784 c-1 -1 -38 -5 -82 -8 -44 -4 -93 -8 -110 -11 -16 -2 -49
-6 -72 -9 -24 -2 -48 -8 -55 -12 -6 -4 -23 -8 -37 -10 -14 -1 -26 -3 -26 -4 0
-2 -15 -5 -58 -13 -15 -3 -54 -14 -85 -23 -31 -10 -61 -19 -67 -19 -5 -1 -26
-8 -45 -17 -50 -22 -114 -42 -122 -40 -5 1 -8 -2 -8 -7 0 -8 -41 -23 -56 -20
-4 0 -10 -5 -15 -13 -5 -7 -12 -14 -16 -14 -26 -5 -53 -18 -53 -26 0 -5 -3 -7
-7 -5 -5 2 -26 -6 -48 -19 -22 -13 -51 -29 -65 -36 -14 -7 -28 -17 -32 -23 -4
-5 -8 -6 -8 -2 0 9 -73 -43 -78 -55 -2 -5 -9 -8 -15 -8 -7 0 -25 -11 -41 -25
-16 -13 -37 -27 -47 -30 -11 -4 -17 -11 -14 -16 4 -5 0 -9 -9 -9 -8 0 -16 -4
-18 -8 -1 -4 -24 -24 -50 -44 -26 -19 -45 -38 -41 -42 3 -3 0 -6 -9 -6 -8 0
-27 -15 -43 -34 -16 -19 -33 -33 -37 -30 -4 3 -8 1 -8 -4 0 -5 -34 -44 -74
-87 -41 -43 -73 -82 -70 -87 3 -5 2 -7 -3 -6 -4 2 -9 -1 -10 -6 0 -5 -8 -13
-17 -18 -9 -5 -16 -16 -16 -24 0 -8 -4 -13 -9 -9 -5 3 -12 -3 -15 -13 -4 -10
-14 -27 -24 -38 -29 -33 -62 -83 -62 -93 0 -5 -10 -17 -22 -25 -12 -9 -19 -16
-15 -16 7 0 -18 -47 -49 -96 -9 -13 -12 -24 -8 -24 5 0 2 -5 -6 -10 -8 -5 -16
-13 -16 -17 -5 -26 -18 -53 -25 -53 -5 0 -9 -9 -9 -19 0 -11 -7 -27 -16 -35
-8 -9 -13 -16 -10 -16 4 0 -3 -18 -14 -40 -41 -80 -138 -386 -126 -397 3 -3 1
-13 -3 -22 -11 -19 -25 -104 -34 -196 -2 -17 -6 -36 -10 -42 -4 -7 -4 -14 1
-17 9 -5 9 -47 0 -62 -6 -10 -2 -267 5 -321 3 -18 0 -33 -5 -33 -7 0 -6 -5 0
-13 6 -7 13 -35 16 -62 3 -28 8 -61 11 -75 3 -14 8 -36 10 -50 9 -55 13 -77
25 -120 7 -25 13 -50 14 -57 1 -7 5 -16 9 -19 4 -4 7 -18 7 -31 0 -13 4 -21
10 -18 6 3 7 -1 4 -9 -3 -9 -3 -24 2 -33 4 -10 8 -20 9 -23 1 -3 5 -14 9 -25
4 -11 17 -45 29 -75 11 -30 27 -68 36 -85 8 -16 16 -32 16 -35 1 -6 58 -117
86 -167 12 -21 39 -64 60 -95 21 -32 39 -62 39 -67 0 -6 6 -14 13 -18 6 -4 25
-27 41 -50 16 -24 33 -43 37 -43 5 0 9 -5 9 -10 0 -6 11 -23 24 -38 13 -15 42
-48 64 -74 22 -26 43 -44 46 -41 3 4 6 0 6 -7 0 -14 37 -50 52 -50 4 0 8 -7 8
-15 0 -8 4 -15 8 -15 4 0 32 -21 60 -47 29 -27 71 -61 93 -78 22 -16 48 -37
57 -46 25 -24 177 -119 190 -119 6 0 12 -4 14 -9 3 -7 184 -105 198 -106 3 0
15 -6 26 -13 12 -6 24 -8 28 -5 3 3 6 1 6 -6 0 -7 4 -9 10 -6 5 3 10 1 10 -4
0 -6 7 -11 16 -11 9 0 30 -6 47 -14 34 -15 129 -46 137 -45 3 0 17 -4 33 -10
15 -6 40 -13 55 -16 33 -7 41 -9 67 -18 11 -3 36 -8 55 -11 39 -6 78 -13 130
-22 124 -22 471 -22 620 0 92 14 137 23 214 42 34 8 66 16 71 17 6 2 16 6 23
10 6 5 12 6 12 3 0 -3 26 4 58 15 31 11 62 22 67 23 6 1 28 10 49 20 22 9 50
19 63 22 13 4 26 10 29 15 3 5 10 7 15 4 5 -4 9 -1 9 4 0 6 3 10 8 9 10 -3 86
34 94 46 4 6 8 7 8 3 0 -8 55 22 135 72 22 14 44 25 48 26 4 0 11 5 15 11 4 6
21 18 39 27 17 9 37 22 45 29 7 7 25 19 41 27 15 8 27 21 27 28 0 8 5 11 10 8
6 -3 10 -1 10 4 0 6 4 11 9 11 9 0 51 34 107 87 19 18 34 30 34 27 0 -2 15 12
32 32 18 20 51 56 73 79 60 64 95 106 95 116 0 5 3 9 8 9 6 0 53 64 87 119 6
9 16 20 23 24 6 4 12 15 12 22 0 8 5 15 10 15 6 0 10 6 10 13 0 8 9 24 20 37
11 12 17 27 14 31 -3 5 -1 9 5 9 5 0 26 35 47 78 21 42 43 80 49 84 5 4 6 8 1
8 -6 0 -5 5 2 12 7 7 12 20 12 30 0 10 5 18 10 18 6 0 10 8 10 18 0 10 3 22 7
26 4 3 8 12 9 19 2 7 12 37 24 67 21 54 32 93 33 118 0 6 3 12 7 12 3 0 6 10
7 22 1 11 6 24 10 27 4 3 9 15 10 26 0 11 4 34 8 50 4 17 9 39 10 50 2 11 4
20 5 20 2 0 6 18 14 65 3 19 8 46 11 60 3 14 8 66 10 115 2 50 5 92 6 95 6 19
3 57 -6 69 -7 11 -7 13 1 8 8 -4 10 20 8 81 -1 48 -3 87 -3 87 -2 0 -12 140
-15 192 0 18 -4 33 -7 33 -3 0 -6 16 -7 35 -1 20 -4 40 -7 45 -6 10 -10 25
-20 81 -4 22 -35 130 -50 177 -3 7 -4 13 -4 15 1 2 -10 32 -37 102 -4 11 -6
23 -6 28 1 4 -3 7 -10 7 -6 0 -8 3 -5 6 3 4 1 16 -5 28 -7 11 -13 23 -13 26
-2 15 -31 70 -37 70 -5 0 -8 9 -8 20 0 11 -5 20 -10 20 -6 0 -9 3 -8 8 3 8
-62 124 -75 133 -4 3 -9 13 -11 22 -1 9 -9 24 -17 34 -9 10 -26 35 -38 56 -13
20 -27 37 -32 37 -5 0 -9 6 -9 13 0 6 -14 28 -30 47 -17 19 -47 55 -67 80 -64
76 -265 270 -274 264 -5 -3 -9 2 -9 10 0 9 -4 16 -8 16 -5 0 -17 8 -28 18 -10
10 -41 33 -69 52 -27 18 -52 36 -55 40 -9 10 -60 41 -60 35 0 -3 -8 3 -18 13
-11 11 -33 25 -50 33 -18 8 -32 17 -32 21 0 5 -6 8 -14 8 -7 0 -25 9 -38 20
-14 10 -28 16 -32 12 -4 -3 -10 -2 -14 4 -9 13 -71 44 -89 44 -7 0 -13 5 -13
11 0 5 -4 7 -10 4 -5 -3 -10 -1 -10 5 0 6 -3 9 -8 7 -4 -3 -25 4 -47 14 -22
11 -49 21 -61 23 -12 3 -31 9 -42 15 -11 6 -22 7 -26 4 -3 -3 -6 -1 -6 5 0 7
-11 12 -25 12 -14 0 -25 4 -25 9 0 5 -8 8 -17 6 -10 -1 -22 0 -28 4 -5 3 -14
6 -20 8 -5 1 -23 5 -40 9 -16 3 -37 7 -45 8 -9 1 -20 4 -25 8 -6 3 -20 4 -32
3 -13 -1 -23 1 -23 5 0 3 -8 6 -17 7 -10 1 -31 4 -48 8 -16 4 -46 8 -65 10
-19 2 -64 6 -100 10 -63 6 -288 14 -293 9z m199 -1185 c3 -6 -5 -3 -20 6 -14
10 -26 19 -26 22 0 7 39 -17 46 -28z m569 -59 c3 -6 -1 -7 -9 -4 -18 7 -21 14
-7 14 6 0 13 -4 16 -10z m115 -55 c17 -9 30 -18 30 -20 0 -6 -52 16 -64 27
-16 13 3 9 34 -7z m80 -40 c14 -8 21 -14 15 -14 -5 0 -21 6 -35 14 -14 8 -20
14 -15 14 6 0 21 -6 35 -14z m88 -40 c13 -4 22 -9 19 -11 -8 -9 -57 16 -57 28
0 9 3 10 8 2 4 -6 17 -15 30 -19z m-1938 0 c-7 -8 -17 -15 -23 -15 -6 0 -2 7
9 15 25 19 30 19 14 0z m-45 -25 c-3 -5 -12 -10 -18 -10 -7 0 -6 4 3 10 19 12
23 12 15 0z m-45 -20 c-24 -15 -36 -11 -14 4 10 8 21 12 24 10 2 -3 -2 -9 -10
-14z m-80 -34 c0 -2 -7 -7 -16 -10 -8 -3 -12 -2 -9 4 6 10 25 14 25 6z m-60
-30 c0 -2 -7 -6 -15 -10 -8 -3 -15 -1 -15 4 0 6 7 10 15 10 8 0 15 -2 15 -4z
m-80 -41 c-7 -8 -17 -15 -23 -15 -6 0 -2 7 9 15 25 19 30 19 14 0z m400 -19
c0 -2 -7 -7 -16 -10 -8 -3 -12 -2 -9 4 6 10 25 14 25 6z m-460 -10 c0 -2 -7
-7 -16 -10 -8 -3 -12 -2 -9 4 6 10 25 14 25 6z m-55 -26 c-9 -15 -45 -32 -45
-22 0 5 10 14 23 20 29 14 29 14 22 2z m405 -19 c0 -5 -10 -11 -22 -14 -22 -6
-22 -6 -4 8 23 17 26 18 26 6z m-465 -20 c-3 -6 -14 -11 -23 -11 -13 0 -13 2
4 14 21 15 30 14 19 -3z m410 -11 c-3 -5 -12 -10 -18 -10 -7 0 -6 4 3 10 19
12 23 12 15 0z m-70 -30 c-3 -5 -12 -10 -18 -10 -7 0 -6 4 3 10 19 12 23 12
15 0z m-35 -14 c0 -2 -18 -13 -40 -24 -22 -10 -37 -15 -34 -10 4 6 20 16 38
24 36 15 36 15 36 10z m2829 -45 c20 -11 45 -22 55 -25 10 -4 16 -9 13 -12 -6
-7 -117 41 -117 50 0 10 11 7 49 -13z m126 -72 c14 -22 -3 -18 -26 7 -23 25
-23 26 -2 15 12 -6 25 -16 28 -22z m-3170 11 c-3 -5 -12 -10 -18 -10 -7 0 -6
4 3 10 19 12 23 12 15 0z m-55 -24 c0 -2 -7 -7 -16 -10 -8 -3 -12 -2 -9 4 6
10 25 14 25 6z m2958 -91 c-2 -1 -14 -8 -28 -15 l-25 -13 20 20 c11 11 24 18
28 16 5 -3 7 -6 5 -8z m-3018 -35 c8 -5 11 -10 5 -10 -5 0 -17 5 -25 10 -8 5
-10 10 -5 10 6 0 17 -5 25 -10z m2960 6 c0 -2 -7 -7 -16 -10 -8 -3 -12 -2 -9
4 6 10 25 14 25 6z m313 -60 c-10 -14 -22 -26 -26 -26 -5 0 2 13 15 29 28 35
37 32 11 -3z m-393 20 c0 -2 -7 -7 -16 -10 -8 -3 -12 -2 -9 4 6 10 25 14 25 6z
m336 -61 c-11 -8 -25 -15 -30 -15 -6 1 0 7 14 15 32 19 40 18 16 0z m-3001 -5
c3 -6 -1 -7 -9 -4 -18 7 -21 14 -7 14 6 0 13 -4 16 -10z m40 -20 c3 -6 -1 -7
-9 -4 -18 7 -21 14 -7 14 6 0 13 -4 16 -10z m2375 -34 c0 -2 -7 -7 -16 -10 -8
-3 -12 -2 -9 4 6 10 25 14 25 6z m-2685 -44 c-3 -3 -11 0 -18 7 -9 10 -8 11 6
5 10 -3 15 -9 12 -12z m40 -20 c-3 -3 -11 0 -18 7 -9 10 -8 11 6 5 10 -3 15
-9 12 -12z m500 -12 c3 -6 -1 -7 -9 -4 -18 7 -21 14 -7 14 6 0 13 -4 16 -10z
m1895 -44 c0 -2 -7 -7 -16 -10 -8 -3 -12 -2 -9 4 6 10 25 14 25 6z m657 -28
c-3 -7 -5 -2 -5 12 0 14 2 19 5 13 2 -7 2 -19 0 -25z m-2822 -26 c-3 -3 -11 0
-18 7 -9 10 -8 11 6 5 10 -3 15 -9 12 -12z m1985 -32 c-8 -5 -19 -10 -25 -10
-5 0 -3 5 5 10 8 5 20 10 25 10 6 0 3 -5 -5 -10z m497 -47 c-3 -10 -5 -4 -5
12 0 17 2 24 5 18 2 -7 2 -21 0 -30z m-547 23 c0 -2 -7 -7 -16 -10 -8 -3 -12
-2 -9 4 6 10 25 14 25 6z m-1305 -24 c-3 -3 -11 0 -18 7 -9 10 -8 11 6 5 10
-3 15 -9 12 -12z m1265 4 c0 -2 -7 -7 -16 -10 -8 -3 -12 -2 -9 4 6 10 25 14
25 6z m-70 -30 c0 -2 -7 -7 -16 -10 -8 -3 -12 -2 -9 4 6 10 25 14 25 6z m663
-16 c-3 -11 -7 -20 -9 -20 -2 0 -4 9 -4 20 0 11 4 20 9 20 5 0 7 -9 4 -20z
m-2214 -3 c-2 -1 -13 -9 -24 -17 -19 -14 -19 -14 -6 3 7 9 18 17 24 17 6 0 8
-1 6 -3z m476 -7 c3 -6 -1 -7 -9 -4 -18 7 -21 14 -7 14 6 0 13 -4 16 -10z
m-420 -28 c-3 -3 -11 0 -18 7 -9 10 -8 11 6 5 10 -3 15 -9 12 -12z m1395 4 c0
-2 -7 -7 -16 -10 -8 -3 -12 -2 -9 4 6 10 25 14 25 6z m757 -28 c-3 -7 -5 -2
-5 12 0 14 2 19 5 13 2 -7 2 -19 0 -25z m-2112 4 c-3 -3 -11 0 -18 7 -9 10 -8
11 6 5 10 -3 15 -9 12 -12z m1315 4 c0 -2 -7 -7 -16 -10 -8 -3 -12 -2 -9 4 6
10 25 14 25 6z m455 -6 c-3 -5 -12 -10 -18 -10 -7 0 -6 4 3 10 19 12 23 12 15
0z m-40 -20 c-3 -5 -12 -10 -18 -10 -7 0 -6 4 3 10 19 12 23 12 15 0z m-1140
-30 c3 -6 -1 -7 -9 -4 -18 7 -21 14 -7 14 6 0 13 -4 16 -10z m1080 0 c-3 -5
-12 -10 -18 -10 -7 0 -6 4 3 10 19 12 23 12 15 0z m442 -22 c-3 -7 -5 -2 -5
12 0 14 2 19 5 13 2 -7 2 -19 0 -25z m-1952 -6 c-3 -3 -11 0 -18 7 -9 10 -8
11 6 5 10 -3 15 -9 12 -12z m470 8 c3 -6 -1 -7 -9 -4 -18 7 -21 14 -7 14 6 0
13 -4 16 -10z m60 -30 c3 -6 -1 -7 -9 -4 -18 7 -21 14 -7 14 6 0 13 -4 16 -10z
m1430 0 c3 -5 1 -10 -4 -10 -6 0 -11 5 -11 10 0 6 2 10 4 10 3 0 8 -4 11 -10z
m-1036 -4 c-2 -2 -15 -9 -29 -15 -24 -11 -24 -11 -6 3 16 13 49 24 35 12z
m-338 -23 c13 -16 12 -17 -3 -4 -17 13 -22 21 -14 21 2 0 10 -8 17 -17z m-456
-11 c-3 -3 -11 0 -18 7 -9 10 -8 11 6 5 10 -3 15 -9 12 -12z m1822 -4 c-3 -8
-6 -5 -6 6 -1 11 2 17 5 13 3 -3 4 -12 1 -19z m-1147 -22 c0 -2 -7 -7 -16 -10
-8 -3 -12 -2 -9 4 6 10 25 14 25 6z m1153 -15 c2 -10 1 -25 -4 -32 -6 -10 -9
-4 -9 19 0 36 5 42 13 13z m-217 -29 c-18 -16 -18 -16 -6 6 6 13 14 21 18 18
3 -4 -2 -14 -12 -24z m-1971 -22 c3 -6 -1 -7 -9 -4 -18 7 -21 14 -7 14 6 0 13
-4 16 -10z m610 -28 c-3 -3 -11 0 -18 7 -9 10 -8 11 6 5 10 -3 15 -9 12 -12z
m1265 4 c0 -2 -7 -7 -16 -10 -8 -3 -12 -2 -9 4 6 10 25 14 25 6z m-1225 -24
c-3 -3 -11 0 -18 7 -9 10 -8 11 6 5 10 -3 15 -9 12 -12z m1150 -12 c-3 -5 -12
-10 -18 -10 -7 0 -6 4 3 10 19 12 23 12 15 0z m-1585 -40 c8 -5 11 -10 5 -10
-5 0 -17 5 -25 10 -8 5 -10 10 -5 10 6 0 17 -5 25 -10z m1950 0 c0 -5 -5 -10
-11 -10 -5 0 -7 5 -4 10 3 6 8 10 11 10 2 0 4 -4 4 -10z m-1025 -10 c-3 -5
-12 -10 -18 -10 -7 0 -6 4 3 10 19 12 23 12 15 0z m1175 -13 c0 -2 -9 -12 -20
-22 -24 -21 -27 -14 -4 9 15 15 24 20 24 13z m248 -27 c17 -27 10 -25 -19 6
-13 14 -17 23 -9 19 9 -3 21 -14 28 -25z m-2733 2 c-3 -3 -11 0 -18 7 -9 10
-8 11 6 5 10 -3 15 -9 12 -12z m2270 8 c-3 -5 -12 -10 -18 -10 -7 0 -6 4 3 10
19 12 23 12 15 0z m-490 -10 c-3 -5 -12 -10 -18 -10 -7 0 -6 4 3 10 19 12 23
12 15 0z m-1740 -18 c-3 -3 -11 0 -18 7 -9 10 -8 11 6 5 10 -3 15 -9 12 -12z
m1040 -2 c3 -6 -1 -7 -9 -4 -18 7 -21 14 -7 14 6 0 13 -4 16 -10z m-510 -20
c3 -6 -1 -7 -9 -4 -18 7 -21 14 -7 14 6 0 13 -4 16 -10z m70 -38 c-3 -3 -11 0
-18 7 -9 10 -8 11 6 5 10 -3 15 -9 12 -12z m1772 -24 c-3 -8 -6 -5 -6 6 -1 11
2 17 5 13 3 -3 4 -12 1 -19z m-847 -2 c0 -2 -7 -7 -16 -10 -8 -3 -12 -2 -9 4
6 10 25 14 25 6z m435 -16 c-3 -5 -12 -10 -18 -10 -7 0 -6 4 3 10 19 12 23 12
15 0z m-496 -14 c-2 -2 -15 -9 -29 -15 -24 -11 -24 -11 -6 3 16 13 49 24 35
12z m416 -26 c-3 -5 -12 -10 -18 -10 -7 0 -6 4 3 10 19 12 23 12 15 0z m-475
-4 c0 -2 -7 -7 -16 -10 -8 -3 -12 -2 -9 4 6 10 25 14 25 6z m-565 -26 c3 -6
-1 -7 -9 -4 -18 7 -21 14 -7 14 6 0 13 -4 16 -10z m495 -5 c0 -2 -10 -9 -22
-15 -22 -11 -22 -10 -4 4 21 17 26 19 26 11z m1438 -70 c0 -16 -2 -15 -8 5 -4
14 -8 36 -8 50 0 22 1 22 8 -5 4 -16 8 -39 8 -50z m-2353 47 c-3 -3 -11 0 -18
7 -9 10 -8 11 6 5 10 -3 15 -9 12 -12z m2143 -7 c-3 -3 -9 2 -12 12 -6 14 -5
15 5 6 7 -7 10 -15 7 -18z m-2083 -23 c-3 -3 -11 0 -18 7 -9 10 -8 11 6 5 10
-3 15 -9 12 -12z m40 -20 c-3 -3 -11 0 -18 7 -9 10 -8 11 6 5 10 -3 15 -9 12
-12z m1796 -5 c-10 -9 -11 -8 -5 6 3 10 9 15 12 12 3 -3 0 -11 -7 -18z m-666
3 c-3 -5 -12 -10 -18 -10 -7 0 -6 4 3 10 19 12 23 12 15 0z m942 -62 c-3 -8
-6 -5 -6 6 -1 11 2 17 5 13 3 -3 4 -12 1 -19z m20 -80 c-3 -7 -5 -2 -5 12 0
14 2 19 5 13 2 -7 2 -19 0 -25z m-1222 12 c-3 -5 -12 -10 -18 -10 -7 0 -6 4 3
10 19 12 23 12 15 0z m-560 -18 c-3 -3 -11 0 -18 7 -9 10 -8 11 6 5 10 -3 15
-9 12 -12z m1692 -64 c-3 -8 -6 -5 -6 6 -1 11 2 17 5 13 3 -3 4 -12 1 -19z
m83 19 c0 -2 -10 -12 -21 -23 -22 -19 -22 -19 -8 4 12 19 29 30 29 19z m-260
-102 c0 -5 -5 -3 -10 5 -5 8 -10 20 -10 25 0 6 5 3 10 -5 5 -8 10 -19 10 -25z
m18 -60 c-3 -3 -9 2 -12 12 -6 14 -5 15 5 6 7 -7 10 -15 7 -18z m82 -134 c14
-13 6 -10 -17 8 -24 18 -43 38 -43 44 0 7 8 3 18 -8 9 -11 28 -31 42 -44z"/>
</g>
</svg>
